<svg xmlns="http://www.w3.org/2000/svg" viewBox="0 0 100 100"><path d="M29.8 37.271c1.65 0 3 1.35 3 3v3h34.4v-3c0-1.65 1.35-3 3-3H29.8Zm0 0c1.65 0 3 1.35 3 3v3h34.4v-3c0-1.65 1.35-3 3-3H29.8Zm0 0c1.65 0 3 1.35 3 3v3h34.4v-3c0-1.65 1.35-3 3-3H29.8Zm54.36-12.06H15.84c-1.66 0-3 1.34-3 3v12.06c0 1.66 1.34 3 3 3h68.32c1.66 0 3-1.34 3-3v-12.06c0-1.66-1.34-3-3-3Zm-3 12.06H18.84v-6.06h62.32v6.06Zm-51.36 0c1.65 0 3 1.35 3 3v3h34.4v-3c0-1.65 1.35-3 3-3H29.8Zm0 0c1.65 0 3 1.35 3 3v3h34.4v-3c0-1.65 1.35-3 3-3H29.8Z"/><path d="M92.51 25.501 51.28 6.051c-.81-.39-1.75-.39-2.56 0L7.49 25.501a2.975 2.975 0 0 0-1.64 3.36c.3 1.37 1.52 2.35 2.92 2.35h82.46c1.4 0 2.62-.98 2.92-2.35.31-1.37-.37-2.77-1.64-3.36Zm-70.35-.29L50 12.081l27.84 13.13H22.16ZM85.41 79.581c-.38-.17-.8-.27-1.25-.27H15.84c-.45 0-.87.1-1.25.27a3.005 3.005 0 0 0-1.75 2.73v8.93c0 1.66 1.34 3 3 3h68.32c1.66 0 3-1.34 3-3v-8.93c0-1.21-.72-2.26-1.75-2.73Zm-4.25 8.66H18.84v-2.93h62.32v2.93Z"/><path d="M28.04 45.421H17.59c-1.65 0-3 1.34-3 3v33.89c0 1.66 1.35 3 3 3h10.45c1.66 0 3-1.34 3-3v-33.89c0-1.66-1.34-3-3-3Zm-7.45 33.89v-27.89h4.45v27.89h-4.45ZM58.09 51.201a2.981 2.981 0 0 0-2.87-2.16H44.78c-1.37 0-2.52.92-2.87 2.16-.09.27-.13.55-.13.84v30.27c0 1.66 1.34 3 3 3h10.44c1.66 0 3-1.34 3-3v-30.27c0-.29-.04-.57-.13-.84Zm-10.31 28.11v-24.27h4.44v24.27h-4.44ZM82.41 45.421H71.96c-1.66 0-3 1.34-3 3v33.89c0 1.66 1.34 3 3 3h10.45c1.65 0 3-1.34 3-3v-33.89c0-1.66-1.35-3-3-3Zm-7.45 33.89v-27.89h4.45v27.89h-4.45Z"/><path d="M29.8 37.271H15.84c-1.66 0-3 1.35-3 3v8.15c0 1.21.72 2.25 1.75 2.72.38.18.8.28 1.25.28H29.8c.44 0 .86-.1 1.24-.28a2.982 2.982 0 0 0 1.76-2.72v-8.15c0-1.65-1.35-3-3-3Zm-3 8.15h-7.96v-2.15h7.96v2.15ZM84.16 37.271H70.2c-1.65 0-3 1.35-3 3v8.15c0 1.21.72 2.25 1.76 2.72.38.18.8.28 1.24.28h13.96c.45 0 .87-.1 1.25-.28a2.99 2.99 0 0 0 1.75-2.72v-8.15c0-1.65-1.34-3-3-3Zm-3 8.15H73.2v-2.15h7.96v2.15ZM56.98 37.271H43.02c-1.66 0-3 1.35-3 3v8.15c0 1.26.78 2.34 1.89 2.78.34.14.72.22 1.11.22h13.96c.39 0 .77-.08 1.11-.22a2.99 2.99 0 0 0 1.89-2.78v-8.15c0-1.65-1.34-3-3-3Zm-3 8.15h-7.96v-2.15h7.96v2.15Z"/></svg>