<svg xmlns="http://www.w3.org/2000/svg" viewBox="0 0 100 100"><path d="M86.51 94.328H13.49a3.001 3.001 0 0 1-2.965-3.457l9.187-59.605a3 3 0 0 1 2.965-2.543h54.646a3 3 0 0 1 2.965 2.543l9.187 59.605a3.001 3.001 0 0 1-2.965 3.457Zm-69.522-6h66.024L74.75 34.723h-49.5l-8.262 53.605Z"/><path d="M61.526 34.723H38.474a3 3 0 0 1-3-3V20.198c0-8.01 6.516-14.526 14.526-14.526s14.526 6.516 14.526 14.526v11.525a3 3 0 0 1-3 3Zm-20.052-6h17.052v-8.525c0-4.701-3.825-8.526-8.526-8.526s-8.526 3.825-8.526 8.526v8.525ZM69.257 94.328a3 3 0 0 1-2.977-3.402l8.07-59.605a2.991 2.991 0 0 1 3.375-2.57 3 3 0 0 1 2.57 3.374L72.226 91.73a3 3 0 0 1-2.969 2.598Z"/></svg>