<svg xmlns="http://www.w3.org/2000/svg" viewBox="0 0 100 100"><path d="M81.093 55.833a3 3 0 0 1-3-3v-24.63H45.205a3 3 0 1 1 0-6h35.888a3 3 0 0 1 3 3v27.63a3 3 0 0 1-3 3ZM18.912 55.833a3 3 0 0 1-3-3v-27.63a3 3 0 0 1 3-3H28.99a3 3 0 1 1 0 6h-7.077v24.63a3 3 0 0 1-3 3ZM91.204 93.896H8.8a3 3 0 0 1-3-3V73.56a3 3 0 0 1 3-3h82.404a3 3 0 0 1 3 3v17.337a3 3 0 0 1-3 3Zm-79.404-6h76.404V76.56H11.8v11.337Z"/><path d="M91.2 76.562H8.795A3 3 0 0 1 6.1 72.246l10.116-20.728a3.001 3.001 0 0 1 5.392 2.63l-8.01 16.414H86.4l-8.003-16.415a2.999 2.999 0 1 1 5.393-2.628l10.106 20.728a3 3 0 0 1-2.696 4.315Z"/><path d="M48.32 55.833H25.954a3 3 0 1 1 0-6h22.364a3 3 0 1 1 0 6Z"/><path d="M45.205 55.833H28.988a3 3 0 0 1-3-3V17.146a3 3 0 0 1 3-3h16.217a3 3 0 0 1 3 3v35.687a3 3 0 0 1-3 3Zm-13.217-6h10.217V20.146H31.988v29.687ZM76.733 20.963h-22.42a3 3 0 0 1-3-3v-8.86a3 3 0 0 1 3-3h22.42a3 3 0 0 1 3 3v8.86a3 3 0 0 1-3 3Zm-19.42-6h16.42v-2.86h-16.42v2.86Z"/><path d="M65.523 28.203a3 3 0 0 1-3-3v-7.24a3 3 0 1 1 6 0v7.24a3 3 0 0 1-3 3ZM72.148 45.297H54.313a3 3 0 0 1-3-3v-8.139a3 3 0 0 1 3-3h17.835a3 3 0 0 1 3 3v8.139a3 3 0 0 1-3 3Zm-14.835-6h11.835v-2.139H57.313v2.139ZM55.862 59.901h-.494a3 3 0 1 1 0-6h.494a3 3 0 1 1 0 6ZM65.523 59.901h-.494a3 3 0 1 1 0-6h.494a3 3 0 1 1 0 6ZM74.95 59.901h-.494a3 3 0 1 1 0-6h.494a3 3 0 1 1 0 6ZM55.862 67.715h-.494a3 3 0 1 1 0-6h.494a3 3 0 1 1 0 6ZM65.523 67.715h-.494a3 3 0 1 1 0-6h.494a3 3 0 1 1 0 6ZM74.95 67.715h-.494a3 3 0 1 1 0-6h.494a3 3 0 1 1 0 6ZM63.854 85.228h-25.22a3 3 0 0 1-3-3v-8.666a3 3 0 0 1 3-3h25.22a3 3 0 0 1 3 3v8.666a3 3 0 0 1-3 3Zm-22.22-6h19.22v-2.666h-19.22v2.666Z"/></svg>